<svg width="24" height="24" viewBox="0 0 24 24" fill="none" xmlns="http://www.w3.org/2000/svg">
<path fill-rule="evenodd" clip-rule="evenodd" d="M11.3142 5.82862C11.3142 5.25948 11.7737 4.80005 12.3428 4.80005C12.912 4.80005 13.3714 5.25948 13.3714 5.82862V6.63091C15.5245 7.09719 17.1428 9.01719 17.1428 11.3143V15.4286L18.5142 16.8V17.4858H6.17139V16.8L7.54282 15.4286V11.3143C7.54282 9.01719 9.1611 7.09719 11.3142 6.63091V5.82862ZM12.3429 7.88578C14.2354 7.88578 15.7714 9.42178 15.7714 11.3143V16.1143H8.91431V11.3143C8.91431 9.42178 10.4503 7.88578 12.3429 7.88578ZM10.9783 18.1784C10.9783 18.9326 11.5886 19.5429 12.3428 19.5429C13.0971 19.5429 13.7074 18.9326 13.7074 18.1784H10.9783Z" fill="white"/>
</svg>
