<svg width="61" height="61" viewBox="0 0 61 61" fill="none" xmlns="http://www.w3.org/2000/svg">
<path d="M19.084 21.2H22.654V31H21.31V22.418H19.084V21.2ZM31.784 29.782V31H24.7V29.964L28.494 26.03C28.9046 25.6193 29.2313 25.2133 29.474 24.812C29.7166 24.4013 29.838 24.0467 29.838 23.748C29.838 23.3093 29.6653 22.964 29.32 22.712C28.984 22.46 28.5173 22.334 27.92 22.334C27.4626 22.334 26.9866 22.4413 26.492 22.656C25.9973 22.8613 25.5493 23.1507 25.148 23.524L24.574 22.502C25.106 22.0727 25.6706 21.7413 26.268 21.508C26.8746 21.2653 27.4813 21.144 28.088 21.144C29.04 21.144 29.8006 21.3633 30.37 21.802C30.9486 22.2407 31.238 22.8287 31.238 23.566C31.238 24.434 30.6313 25.498 29.418 26.758L26.464 29.782H31.784ZM36.6997 24.854C37.4184 24.854 38.0484 24.98 38.5897 25.232C39.1404 25.484 39.5604 25.834 39.8497 26.282C40.1484 26.73 40.2977 27.234 40.2977 27.794C40.2977 28.4473 40.1437 29.0213 39.8357 29.516C39.5371 30.0107 39.1077 30.3933 38.5477 30.664C37.9877 30.9347 37.3391 31.07 36.6017 31.07C36.0231 31.07 35.4117 30.972 34.7677 30.776C34.1331 30.5707 33.5637 30.3 33.0597 29.964L33.6057 28.886C34.0257 29.2033 34.4877 29.446 34.9917 29.614C35.4957 29.782 35.9904 29.866 36.4757 29.866C37.2131 29.866 37.7964 29.6887 38.2257 29.334C38.6551 28.9793 38.8697 28.4987 38.8697 27.892C38.8697 27.3227 38.6551 26.8793 38.2257 26.562C37.7964 26.2353 37.1851 26.072 36.3917 26.072C36.1024 26.072 35.6824 26.0907 35.1317 26.128C34.5811 26.1653 34.1377 26.212 33.8017 26.268V21.2H39.8917V22.418H35.0617V24.91C35.5004 24.8727 36.0464 24.854 36.6997 24.854Z" fill="#050505"/>
<circle cx="30.5" cy="30.5" r="28" stroke="#00CCFF" stroke-width="5"/>
<path d="M26.688 42L25.336 39.944L24.512 40.8V42H23.768V36.064H24.512V39.848L26.56 37.768H27.432L25.856 39.408L27.584 42H26.688ZM31.1569 38.896C30.8209 38.5707 30.4183 38.408 29.9489 38.408C29.6716 38.408 29.4236 38.4693 29.2049 38.592C28.9916 38.7147 28.8236 38.888 28.7009 39.112C28.5783 39.336 28.5169 39.5947 28.5169 39.888C28.5169 40.1813 28.5756 40.44 28.6929 40.664C28.8156 40.888 28.9809 41.064 29.1889 41.192C29.4023 41.3147 29.6449 41.376 29.9169 41.376C30.1889 41.376 30.4343 41.3307 30.6529 41.24C30.8716 41.1493 31.0529 41.0187 31.1969 40.848L31.6209 41.28C31.4289 41.52 31.1836 41.704 30.8849 41.832C30.5916 41.96 30.2583 42.024 29.8849 42.024C29.4743 42.024 29.1089 41.9333 28.7889 41.752C28.4689 41.5707 28.2183 41.32 28.0369 41C27.8609 40.6747 27.7729 40.304 27.7729 39.888C27.7729 39.472 27.8609 39.1013 28.0369 38.776C28.2183 38.4507 28.4689 38.1973 28.7889 38.016C29.1089 37.8347 29.4743 37.744 29.8849 37.744C30.2423 37.744 30.5623 37.8 30.8449 37.912C31.1329 38.0187 31.3729 38.176 31.5649 38.384L31.1569 38.896ZM35.0542 42V41.408C34.7395 41.824 34.2462 42.032 33.5742 42.032C33.2809 42.032 33.0222 41.976 32.7982 41.864C32.5795 41.752 32.4089 41.5973 32.2862 41.4C32.1689 41.2027 32.1102 40.9813 32.1102 40.736C32.1102 40.3573 32.2489 40.0587 32.5262 39.84C32.8089 39.616 33.2009 39.5013 33.7022 39.496H35.0462V39.296C35.0462 38.9973 34.9529 38.768 34.7662 38.608C34.5849 38.4427 34.3182 38.36 33.9662 38.36C33.5395 38.36 33.1049 38.512 32.6622 38.816L32.3502 38.304C32.6542 38.1067 32.9342 37.9653 33.1902 37.88C33.4515 37.7893 33.7609 37.744 34.1182 37.744C34.6462 37.744 35.0542 37.8747 35.3422 38.136C35.6302 38.392 35.7769 38.752 35.7822 39.216L35.7902 42H35.0542ZM33.7262 41.416C34.0729 41.416 34.3662 41.3333 34.6062 41.168C34.8515 40.9973 34.9982 40.7733 35.0462 40.496V40.072H33.8062C33.4702 40.072 33.2195 40.1227 33.0542 40.224C32.8942 40.3253 32.8142 40.4853 32.8142 40.704C32.8142 40.9227 32.8969 41.096 33.0622 41.224C33.2275 41.352 33.4489 41.416 33.7262 41.416ZM37.1586 36.064H37.9026V42H37.1586V36.064Z" fill="#050505"/>
</svg>
