<svg width="14" height="15" viewBox="0 0 14 15" fill="none" xmlns="http://www.w3.org/2000/svg">
<path d="M0 4.67925C0 4.98951 0.125174 5.28705 0.347984 5.50644C0.570794 5.72582 0.87299 5.84907 1.18809 5.84907V11.6981C1.18809 12.3186 1.43844 12.9137 1.88406 13.3525C2.32968 13.7913 2.93407 14.0378 3.56428 14.0378H9.50473C10.1349 14.0378 10.7393 13.7913 11.1849 13.3525C11.6306 12.9137 11.8809 12.3186 11.8809 11.6981V5.84907C12.196 5.84907 12.4982 5.72582 12.721 5.50644C12.9438 5.28705 13.069 4.98951 13.069 4.67925V3.50944C13.069 3.19919 12.9438 2.90164 12.721 2.68226C12.4982 2.46287 12.196 2.33963 11.8809 2.33963H9.50473V1.16981C9.50473 0.85956 9.37956 0.562013 9.15675 0.34263C8.93394 0.123248 8.63174 0 8.31664 0H4.75237C4.43727 0 4.13507 0.123248 3.91226 0.34263C3.68945 0.562013 3.56428 0.85956 3.56428 1.16981V2.33963H1.18809C0.87299 2.33963 0.570794 2.46287 0.347984 2.68226C0.125174 2.90164 0 3.19919 0 3.50944V4.67925ZM10.6928 11.6981C10.6928 12.0084 10.5677 12.3059 10.3448 12.5253C10.122 12.7447 9.81984 12.8679 9.50473 12.8679H3.56428C3.24917 12.8679 2.94698 12.7447 2.72417 12.5253C2.50136 12.3059 2.37618 12.0084 2.37618 11.6981V5.84907H10.6928V11.6981ZM4.75237 1.16981H8.31664V2.33963H4.75237V1.16981ZM1.18809 3.50944H11.8809V4.67925H1.18809V3.50944Z" fill="white"/>
<path d="M4.1585 11.6981C4.31605 11.6981 4.46715 11.6364 4.57855 11.5267C4.68996 11.417 4.75255 11.2683 4.75255 11.1131V7.60371C4.75255 7.44858 4.68996 7.29981 4.57855 7.19011C4.46715 7.08042 4.31605 7.0188 4.1585 7.0188C4.00095 7.0188 3.84985 7.08042 3.73845 7.19011C3.62704 7.29981 3.56445 7.44858 3.56445 7.60371V11.1131C3.56445 11.2683 3.62704 11.417 3.73845 11.5267C3.84985 11.6364 4.00095 11.6981 4.1585 11.6981Z" fill="white"/>
<path d="M6.53447 11.6981C6.69202 11.6981 6.84312 11.6364 6.95453 11.5267C7.06593 11.417 7.12852 11.2683 7.12852 11.1131V7.60371C7.12852 7.44858 7.06593 7.29981 6.95453 7.19011C6.84312 7.08042 6.69202 7.0188 6.53447 7.0188C6.37692 7.0188 6.22583 7.08042 6.11442 7.19011C6.00302 7.29981 5.94043 7.44858 5.94043 7.60371V11.1131C5.94043 11.2683 6.00302 11.417 6.11442 11.5267C6.22583 11.6364 6.37692 11.6981 6.53447 11.6981Z" fill="white"/>
<path d="M8.9107 11.6981C9.06825 11.6981 9.21934 11.6364 9.33075 11.5267C9.44215 11.417 9.50474 11.2683 9.50474 11.1131V7.60371C9.50474 7.44858 9.44215 7.29981 9.33075 7.19011C9.21934 7.08042 9.06825 7.0188 8.9107 7.0188C8.75315 7.0188 8.60205 7.08042 8.49064 7.19011C8.37924 7.29981 8.31665 7.44858 8.31665 7.60371V11.1131C8.31665 11.2683 8.37924 11.417 8.49064 11.5267C8.60205 11.6364 8.75315 11.6981 8.9107 11.6981Z" fill="white"/>
</svg>
