<svg width="27" height="27" viewBox="0 0 27 27" fill="none" xmlns="http://www.w3.org/2000/svg">
<path d="M15.5515 26.1096C15.44 26.1274 15.328 26.1439 15.2155 26.159C15.3298 26.1439 15.4418 26.1274 15.5515 26.1096Z" fill="#3B5999"/>
<path d="M15.8198 26.0649L15.6594 26.0924L15.8198 26.0649Z" fill="#3B5999"/>
<path d="M14.9165 26.1954C14.7858 26.2096 14.6546 26.2222 14.5229 26.2332C14.6546 26.2227 14.7858 26.2101 14.9165 26.1954Z" fill="#3B5999"/>
<path d="M15.1734 26.1645L14.9844 26.1878L15.1734 26.1645Z" fill="#3B5999"/>
<path d="M16.1839 25.9941L16.0438 26.023L16.1839 25.9941Z" fill="#3B5999"/>
<path d="M17.0885 25.7729L16.9744 25.8038L17.0885 25.7729Z" fill="#3B5999"/>
<path d="M16.8147 25.8464L16.6908 25.878L16.8147 25.8464Z" fill="#3B5999"/>
<path d="M16.4569 25.9343L16.3246 25.9632L16.4569 25.9343Z" fill="#3B5999"/>
<path d="M14.518 26.2339L14.308 26.2497L14.518 26.2339Z" fill="#3B5999"/>
<path d="M26.7842 13.1403C26.7842 10.5414 25.9988 8.00086 24.5273 5.83995C23.0557 3.67904 20.9642 1.99481 18.5171 1.00025C16.07 0.00569346 13.3773 -0.254528 10.7795 0.252493C8.18164 0.759515 5.79539 2.01101 3.92247 3.84871C2.04955 5.68642 0.77407 8.02779 0.257332 10.5768C-0.259406 13.1257 0.00580257 15.7678 1.01942 18.1689C2.03304 20.57 3.74954 22.6222 5.95186 24.0661C8.15419 25.5099 10.7434 26.2806 13.3921 26.2806C13.4706 26.2806 13.549 26.2806 13.6274 26.2806V16.0485H10.7503V12.7583H13.6274V10.3372C13.6274 7.52926 15.3744 6.00129 17.9274 6.00129C18.789 5.99828 19.6501 6.04139 20.5069 6.13045V9.0648H18.7466C17.3581 9.0648 17.0892 9.71267 17.0892 10.6628V12.7583H20.4096L19.9769 16.0485H17.0885V25.7729C19.8826 24.9844 22.3395 23.3257 24.0885 21.0469C25.8375 18.7681 26.7837 15.993 26.7842 13.1403Z" fill="#3B5999"/>
<path d="M14.2772 26.2518C14.1371 26.2605 13.9971 26.2673 13.8571 26.2724C13.9976 26.2678 14.1376 26.2609 14.2772 26.2518Z" fill="#3B5999"/>
<path d="M13.8507 26.2724L13.6281 26.2779L13.8507 26.2724Z" fill="#3B5999"/>
</svg>
