<svg width="61" height="61" viewBox="0 0 61 61" fill="none" xmlns="http://www.w3.org/2000/svg">
<circle cx="30.5" cy="30.5" r="28" stroke="black" stroke-opacity="0.2" stroke-width="5"/>
<path d="M29.3601 2.52321C35.5414 2.27137 41.632 4.07369 46.6808 7.64871C51.7296 11.2237 55.4523 16.3701 57.2675 22.2842" stroke="#00CCFF" stroke-width="5" stroke-linecap="round"/>
<path d="M23.616 34.782V36H16.532V34.964L20.326 31.03C20.7367 30.6193 21.0633 30.2133 21.306 29.812C21.5487 29.4013 21.67 29.0467 21.67 28.748C21.67 28.3093 21.4973 27.964 21.152 27.712C20.816 27.46 20.3493 27.334 19.752 27.334C19.2947 27.334 18.8187 27.4413 18.324 27.656C17.8293 27.8613 17.3813 28.1507 16.98 28.524L16.406 27.502C16.938 27.0727 17.5027 26.7413 18.1 26.508C18.7067 26.2653 19.3133 26.144 19.92 26.144C20.872 26.144 21.6327 26.3633 22.202 26.802C22.7807 27.2407 23.07 27.8287 23.07 28.566C23.07 29.434 22.4633 30.498 21.25 31.758L18.296 34.782H23.616ZM29.1618 26.144C30.4778 26.144 31.4904 26.5733 32.1998 27.432C32.9091 28.2813 33.2638 29.504 33.2638 31.1C33.2638 32.696 32.9091 33.9233 32.1998 34.782C31.4904 35.6407 30.4778 36.07 29.1618 36.07C27.8364 36.07 26.8191 35.6407 26.1098 34.782C25.4098 33.9233 25.0598 32.696 25.0598 31.1C25.0598 29.504 25.4098 28.2813 26.1098 27.432C26.8191 26.5733 27.8364 26.144 29.1618 26.144ZM29.1618 27.208C27.3511 27.208 26.4458 28.5053 26.4458 31.1C26.4458 32.388 26.6744 33.3587 27.1318 34.012C27.5891 34.6653 28.2658 34.992 29.1618 34.992C30.0578 34.992 30.7344 34.6653 31.1918 34.012C31.6491 33.3587 31.8778 32.388 31.8778 31.1C31.8778 28.5053 30.9724 27.208 29.1618 27.208ZM37.1549 26.172C37.9482 26.172 38.5689 26.4287 39.0169 26.942C39.4649 27.4553 39.6889 28.1693 39.6889 29.084C39.6889 29.9987 39.4649 30.7173 39.0169 31.24C38.5689 31.7533 37.9482 32.01 37.1549 32.01C36.3615 32.01 35.7409 31.7533 35.2929 31.24C34.8449 30.7173 34.6209 29.9987 34.6209 29.084C34.6209 28.1693 34.8449 27.4553 35.2929 26.942C35.7409 26.4287 36.3615 26.172 37.1549 26.172ZM37.1549 26.956C36.6322 26.956 36.2262 27.1427 35.9369 27.516C35.6569 27.88 35.5169 28.4027 35.5169 29.084C35.5169 29.7653 35.6569 30.2927 35.9369 30.666C36.2262 31.03 36.6322 31.212 37.1549 31.212C37.6775 31.212 38.0789 31.03 38.3589 30.666C38.6482 30.2927 38.7929 29.7653 38.7929 29.084C38.7929 28.4027 38.6482 27.88 38.3589 27.516C38.0789 27.1427 37.6775 26.956 37.1549 26.956ZM43.7629 26.2H44.8269L37.5609 36H36.4829L43.7629 26.2ZM44.3089 30.204C45.1022 30.204 45.7229 30.4607 46.1709 30.974C46.6189 31.4873 46.8429 32.2013 46.8429 33.116C46.8429 34.0307 46.6189 34.7493 46.1709 35.272C45.7229 35.7853 45.1022 36.042 44.3089 36.042C43.5155 36.042 42.8949 35.7853 42.4469 35.272C41.9989 34.7493 41.7749 34.0307 41.7749 33.116C41.7749 32.2013 41.9989 31.4873 42.4469 30.974C42.8949 30.4607 43.5155 30.204 44.3089 30.204ZM44.3089 30.988C43.7862 30.988 43.3802 31.1747 43.0909 31.548C42.8109 31.912 42.6709 32.4347 42.6709 33.116C42.6709 33.7973 42.8109 34.3247 43.0909 34.698C43.3802 35.062 43.7862 35.244 44.3089 35.244C44.8315 35.244 45.2329 35.062 45.5129 34.698C45.8022 34.3247 45.9469 33.7973 45.9469 33.116C45.9469 32.4347 45.8022 31.912 45.5129 31.548C45.2329 31.1747 44.8315 30.988 44.3089 30.988Z" fill="#050505"/>
</svg>
