<svg width="28" height="27" viewBox="0 0 28 27" fill="none" xmlns="http://www.w3.org/2000/svg">
<path d="M16.7685 13.1403C16.7685 13.6378 16.6182 14.1241 16.3365 14.5377C16.0548 14.9513 15.6545 15.2737 15.186 15.4641C14.7176 15.6545 14.2022 15.7043 13.705 15.6072C13.2077 15.5102 12.7509 15.2706 12.3924 14.9189C12.0339 14.5671 11.7898 14.1189 11.6909 13.631C11.5919 13.1431 11.6427 12.6374 11.8367 12.1778C12.0308 11.7182 12.3593 11.3253 12.7809 11.049C13.2024 10.7726 13.6981 10.6251 14.2051 10.6251C14.8849 10.6251 15.537 10.8901 16.0177 11.3618C16.4984 11.8335 16.7685 12.4732 16.7685 13.1403Z" fill="#DF55AE"/>
<path d="M20.2002 8.69036C20.0723 8.365 19.8764 8.06952 19.625 7.82293C19.3737 7.57634 19.0726 7.3841 18.741 7.25857C18.2838 7.09236 17.8008 7.00451 17.3133 6.99886C16.5024 6.96245 16.2588 6.9549 14.2058 6.9549C12.1528 6.9549 11.9091 6.96245 11.0983 6.99886C10.6107 7.00457 10.1278 7.09242 9.67054 7.25857C9.33884 7.38406 9.03759 7.57628 8.78616 7.82287C8.53472 8.06946 8.33867 8.36496 8.21061 8.69036C8.04127 9.13899 7.95174 9.61284 7.94593 10.0912C7.90882 10.8868 7.90112 11.1252 7.90112 13.1403C7.90112 15.1554 7.90882 15.3938 7.94593 16.1894C7.95171 16.6678 8.04124 17.1416 8.21061 17.5903C8.33855 17.9156 8.53448 18.2111 8.78579 18.4577C9.03711 18.7043 9.33825 18.8965 9.66984 19.022C10.127 19.1883 10.61 19.2762 11.0976 19.2817C11.9084 19.3182 12.1514 19.3257 14.2051 19.3257C16.2588 19.3257 16.5017 19.3182 17.3126 19.2817C17.8001 19.2762 18.2831 19.1883 18.7403 19.022C19.0719 18.8965 19.373 18.7043 19.6243 18.4577C19.8757 18.2111 20.0716 17.9156 20.1995 17.5903C20.3688 17.1416 20.4584 16.6678 20.4642 16.1894C20.5013 15.3938 20.509 15.1547 20.509 13.1403C20.509 11.1259 20.5013 10.8868 20.4642 10.0912C20.4588 9.61287 20.3695 9.139 20.2002 8.69036ZM14.2058 17.0152C13.4247 17.0152 12.6612 16.7879 12.0117 16.3622C11.3623 15.9364 10.8561 15.3312 10.5572 14.6232C10.2583 13.9151 10.1801 13.136 10.3325 12.3844C10.4849 11.6327 10.861 10.9423 11.4133 10.4003C11.9656 9.85843 12.6693 9.48938 13.4353 9.33986C14.2014 9.19035 14.9954 9.26709 15.717 9.56037C16.4387 9.85365 17.0554 10.3503 17.4894 10.9875C17.9233 11.6248 18.1549 12.3739 18.1549 13.1403C18.1549 14.168 17.7389 15.1536 16.9982 15.8803C16.2576 16.607 15.2531 17.0152 14.2058 17.0152ZM18.3111 10.0184C18.1285 10.0184 17.9501 9.96529 17.7983 9.86579C17.6466 9.76629 17.5283 9.62488 17.4584 9.45942C17.3886 9.29395 17.3703 9.11188 17.4059 8.93622C17.4415 8.76057 17.5294 8.59922 17.6585 8.47258C17.7876 8.34595 17.952 8.25971 18.131 8.22477C18.31 8.18983 18.4956 8.20776 18.6642 8.27629C18.8329 8.34483 18.977 8.46089 19.0784 8.6098C19.1798 8.75871 19.2339 8.93379 19.2339 9.11289C19.2339 9.23186 19.21 9.34967 19.1636 9.45957C19.1172 9.56948 19.0492 9.66933 18.9634 9.75342C18.8776 9.83752 18.7758 9.90421 18.6637 9.94967C18.5517 9.99514 18.4316 10.0185 18.3104 10.0184H18.3111Z" fill="#DF55AE"/>
<path d="M14.2051 0C11.5564 0 8.96718 0.770665 6.76485 2.21454C4.56253 3.65842 2.84603 5.71065 1.83241 8.11173C0.818791 10.5128 0.553582 13.1549 1.07032 15.7039C1.58706 18.2528 2.86253 20.5942 4.73546 22.4319C6.60838 24.2696 8.99463 25.5211 11.5924 26.0281C14.1903 26.5351 16.883 26.2749 19.3301 25.2804C21.7772 24.2858 23.8687 22.6016 25.3403 20.4407C26.8118 18.2798 27.5972 15.7392 27.5972 13.1403C27.5969 9.65539 26.1858 6.31331 23.6744 3.84911C21.1629 1.3849 17.7568 0.000364359 14.2051 0V0ZM21.8486 16.2512C21.8359 16.8772 21.7152 17.4965 21.4915 18.0829C21.2939 18.5841 20.9918 19.0393 20.6045 19.4193C20.2172 19.7993 19.7532 20.0958 19.2424 20.2896C18.6448 20.5091 18.0136 20.6276 17.3756 20.64C16.5557 20.6764 16.2938 20.6854 14.2051 20.6854C12.1164 20.6854 11.8552 20.6799 11.036 20.64C10.398 20.6276 9.76684 20.5091 9.16924 20.2896C8.65814 20.0959 8.19394 19.7996 7.80639 19.4195C7.41885 19.0395 7.11652 18.5842 6.91878 18.0829C6.69502 17.4965 6.57427 16.8772 6.56168 16.2512C6.52387 15.4467 6.51476 15.1891 6.51476 13.1403C6.51476 11.0916 6.52387 10.8339 6.56098 10.0294C6.57361 9.40343 6.69436 8.78409 6.91808 8.19775C7.11585 7.69651 7.41812 7.24132 7.80552 6.86132C8.19293 6.48131 8.65694 6.18487 9.16784 5.99098C9.76589 5.77139 10.3976 5.65291 11.036 5.64059C11.8559 5.60418 12.1178 5.59524 14.2065 5.59524C16.2952 5.59524 16.5571 5.60418 17.377 5.64128C18.015 5.65378 18.6462 5.77225 19.2438 5.99167C19.7546 6.18557 20.2185 6.48202 20.6058 6.86202C20.9931 7.24203 21.2952 7.69722 21.4929 8.19843C21.7168 8.78473 21.8378 9.40407 21.8507 10.0301C21.8878 10.8346 21.8969 11.0916 21.8969 13.141C21.8969 15.1904 21.8892 15.4467 21.8486 16.2512Z" fill="#DF55AE"/>
</svg>
