<svg width="61" height="61" viewBox="0 0 61 61" fill="none" xmlns="http://www.w3.org/2000/svg">
<circle cx="30.5" cy="30.5" r="28" stroke="black" stroke-opacity="0.2" stroke-width="5"/>
<path d="M56.3268 19.6846C58.109 23.9403 58.8119 28.5705 58.373 33.1634C57.9342 37.7563 56.3671 42.1695 53.8113 46.0108C51.2554 49.852 47.79 53.0021 43.7231 55.181C39.6561 57.3599 35.1138 58.5 30.5 58.5" stroke="#00CCFF" stroke-width="5" stroke-linecap="round"/>
<path d="M20.27 30.358C21.25 30.414 22.0293 30.6707 22.608 31.128C23.1867 31.5853 23.476 32.2013 23.476 32.976C23.476 33.5827 23.3173 34.1193 23 34.586C22.692 35.0527 22.2487 35.4167 21.67 35.678C21.1007 35.9393 20.4333 36.07 19.668 36.07C19.052 36.07 18.4313 35.9767 17.806 35.79C17.19 35.6033 16.658 35.356 16.21 35.048L16.784 33.956C17.176 34.264 17.6147 34.502 18.1 34.67C18.5853 34.838 19.08 34.922 19.584 34.922C20.3867 34.922 21.0167 34.7493 21.474 34.404C21.9313 34.0587 22.16 33.5967 22.16 33.018C22.16 32.4393 21.9313 32.0007 21.474 31.702C21.0167 31.394 20.3727 31.24 19.542 31.24H18.198V30.386L21.208 27.418H16.686L16.672 26.2H22.972V27.054L19.682 30.316L20.27 30.358ZM29.2575 26.144C30.5735 26.144 31.5861 26.5733 32.2955 27.432C33.0048 28.2813 33.3595 29.504 33.3595 31.1C33.3595 32.696 33.0048 33.9233 32.2955 34.782C31.5861 35.6407 30.5735 36.07 29.2575 36.07C27.9321 36.07 26.9148 35.6407 26.2055 34.782C25.5055 33.9233 25.1555 32.696 25.1555 31.1C25.1555 29.504 25.5055 28.2813 26.2055 27.432C26.9148 26.5733 27.9321 26.144 29.2575 26.144ZM29.2575 27.208C27.4468 27.208 26.5415 28.5053 26.5415 31.1C26.5415 32.388 26.7701 33.3587 27.2275 34.012C27.6848 34.6653 28.3615 34.992 29.2575 34.992C30.1535 34.992 30.8301 34.6653 31.2875 34.012C31.7448 33.3587 31.9735 32.388 31.9735 31.1C31.9735 28.5053 31.0681 27.208 29.2575 27.208ZM37.2506 26.172C38.0439 26.172 38.6646 26.4287 39.1126 26.942C39.5606 27.4553 39.7846 28.1693 39.7846 29.084C39.7846 29.9987 39.5606 30.7173 39.1126 31.24C38.6646 31.7533 38.0439 32.01 37.2506 32.01C36.4572 32.01 35.8366 31.7533 35.3886 31.24C34.9406 30.7173 34.7166 29.9987 34.7166 29.084C34.7166 28.1693 34.9406 27.4553 35.3886 26.942C35.8366 26.4287 36.4572 26.172 37.2506 26.172ZM37.2506 26.956C36.7279 26.956 36.3219 27.1427 36.0326 27.516C35.7526 27.88 35.6126 28.4027 35.6126 29.084C35.6126 29.7653 35.7526 30.2927 36.0326 30.666C36.3219 31.03 36.7279 31.212 37.2506 31.212C37.7732 31.212 38.1746 31.03 38.4546 30.666C38.7439 30.2927 38.8886 29.7653 38.8886 29.084C38.8886 28.4027 38.7439 27.88 38.4546 27.516C38.1746 27.1427 37.7732 26.956 37.2506 26.956ZM43.8586 26.2H44.9226L37.6566 36H36.5786L43.8586 26.2ZM44.4046 30.204C45.1979 30.204 45.8186 30.4607 46.2666 30.974C46.7146 31.4873 46.9386 32.2013 46.9386 33.116C46.9386 34.0307 46.7146 34.7493 46.2666 35.272C45.8186 35.7853 45.1979 36.042 44.4046 36.042C43.6112 36.042 42.9906 35.7853 42.5426 35.272C42.0946 34.7493 41.8706 34.0307 41.8706 33.116C41.8706 32.2013 42.0946 31.4873 42.5426 30.974C42.9906 30.4607 43.6112 30.204 44.4046 30.204ZM44.4046 30.988C43.8819 30.988 43.4759 31.1747 43.1866 31.548C42.9066 31.912 42.7666 32.4347 42.7666 33.116C42.7666 33.7973 42.9066 34.3247 43.1866 34.698C43.4759 35.062 43.8819 35.244 44.4046 35.244C44.9272 35.244 45.3286 35.062 45.6086 34.698C45.8979 34.3247 46.0426 33.7973 46.0426 33.116C46.0426 32.4347 45.8979 31.912 45.6086 31.548C45.3286 31.1747 44.9272 30.988 44.4046 30.988Z" fill="#050505"/>
</svg>
