<svg width="28" height="27" viewBox="0 0 28 27" fill="none" xmlns="http://www.w3.org/2000/svg">
<path d="M14.3673 0C11.705 0 9.1025 0.770665 6.88888 2.21454C4.67526 3.65842 2.94996 5.71065 1.93114 8.11173C0.912326 10.5128 0.645758 13.1549 1.16515 15.7038C1.68453 18.2528 2.96655 20.5942 4.84908 22.4319C6.7316 24.2696 9.13009 25.5211 11.7412 26.0281C14.3524 26.5351 17.0589 26.2749 19.5185 25.2804C21.9782 24.2858 24.0805 22.6016 25.5595 20.4407C27.0386 18.2798 27.8281 15.7392 27.8281 13.1403C27.8277 9.65539 26.4094 6.31331 23.8851 3.84911C21.3608 1.3849 17.9372 0.000364359 14.3673 0V0ZM20.5135 10.2458C20.5196 10.375 20.5227 10.5048 20.5227 10.6354C20.5306 11.7644 20.3085 12.8838 19.8695 13.9284C19.4305 14.973 18.7832 15.9221 17.9653 16.7205C17.1474 17.5188 16.1752 18.1506 15.105 18.5791C14.0349 19.0076 12.8882 19.2242 11.7316 19.2165C10.0526 19.2185 8.40854 18.7486 6.99574 17.863C7.24031 17.8911 7.48636 17.9051 7.73262 17.9049C9.12379 17.907 10.4753 17.4524 11.5697 16.614C10.9251 16.6019 10.3004 16.3936 9.78306 16.018C9.2657 15.6424 8.88149 15.1184 8.68415 14.5192C9.14726 14.6066 9.62475 14.589 10.0798 14.4677C9.38093 14.3299 8.75236 13.9605 8.3006 13.4221C7.84884 12.8837 7.60168 12.2094 7.60101 11.5134C7.60101 11.4997 7.60101 11.4873 7.60101 11.4749C8.02978 11.7081 8.50958 11.8374 9.00015 11.8521C8.34597 11.4256 7.8829 10.7717 7.7052 10.0236C7.52751 9.2755 7.64855 8.48942 8.04369 7.82537C8.81955 8.75721 9.7875 9.51933 10.8847 10.0623C11.9819 10.6052 13.1838 10.9168 14.4123 10.9768C14.2582 10.3302 14.3269 9.65195 14.6077 9.04726C14.8885 8.44257 15.3658 7.94516 15.9655 7.63211C16.5653 7.31906 17.2541 7.20785 17.9251 7.3157C18.5962 7.42355 19.2121 7.74444 19.6774 8.22866C20.3697 8.0929 21.033 7.84265 21.6389 7.48872C21.408 8.18718 20.925 8.77998 20.2799 9.15685C20.8923 9.08617 21.4904 8.92614 22.0542 8.68211C21.6395 9.28794 21.1176 9.81676 20.5128 10.2437L20.5135 10.2458Z" fill="#00CCFF"/>
</svg>
