<svg width="27" height="27" viewBox="0 0 27 27" fill="none" xmlns="http://www.w3.org/2000/svg">
<path fill-rule="evenodd" clip-rule="evenodd" d="M13.1403 26.2806C20.3975 26.2806 26.2806 20.3975 26.2806 13.1403C26.2806 5.88312 20.3975 0 13.1403 0C5.88312 0 0 5.88312 0 13.1403C0 20.3975 5.88312 26.2806 13.1403 26.2806ZM11.4211 10.5648L11.3929 10.5477H11.4212L11.4211 10.5648ZM11.4211 10.5648L11.3929 15.7303L15.5583 13.0773L11.4211 10.5648ZM20.6589 8.75841C21.1407 10.3317 21.0557 14.0336 20.914 15.7612C20.6589 18.7227 20.0072 19.062 17.2585 19.1854C15.0199 19.3088 12.7813 19.3397 10.5144 19.278C10.2976 19.2711 10.0724 19.2673 9.84264 19.2635C8.00017 19.2323 5.86103 19.1961 5.35714 17.5504C4.90375 16.0388 4.96042 12.2135 5.10211 10.5168C5.35714 7.55529 6.06555 7.24679 8.75754 7.1234C10.9961 7 13.2631 6.96915 15.5017 7.03085C15.716 7.03771 15.9395 7.04152 16.1683 7.04542C17.9953 7.07656 20.1553 7.11338 20.6589 8.75841Z" fill="#FF0000"/>
</svg>
